<svg xmlns="http://www.w3.org/2000/svg" width="199" height="31.896" viewBox="0 0 199 31.896">
  <g id="logo" transform="translate(-0.009 -0.239)">
    <path id="Path_390" data-name="Path 390" d="M23.062.879C16.692.876,10.046,2.321,3.339,4.2A3.415,3.415,0,0,0,1.216,5.625a5.472,5.472,0,0,0-.677,2A53.442,53.442,0,0,0,.1,18.918a5.693,5.693,0,0,0,.59,2.662A3.009,3.009,0,0,0,2.8,22.81q1.74.257,3.489.436l-.257,7.226A1.564,1.564,0,0,0,6.621,31.8a1.846,1.846,0,0,0,1.01.37,2.01,2.01,0,0,0,1.954-1.044,26.073,26.073,0,0,1,5.209-7.389,163.458,163.458,0,0,0,16.888-.619,4.31,4.31,0,0,0,3.852-3.109c1.119-3.516,1.293-7.855,1.412-12.242a5.611,5.611,0,0,0-1.608-4.348A8.586,8.586,0,0,0,31.992,1.99,42.647,42.647,0,0,0,23.062.879Zm8.485,2.75a7.712,7.712,0,0,1,2.729,1.111,3.518,3.518,0,0,1,.989,3.053c-.117,4.255-.32,8.384-1.273,11.514a2.792,2.792,0,0,1-2.479,2.123,158.424,158.424,0,0,1-17.074.614.848.848,0,0,0-.629.251A28.176,28.176,0,0,0,8.1,30.332a.307.307,0,0,1-.26.145.123.123,0,0,1-.117-.123l.259-7.835a.874.874,0,0,0-.748-.872q-2.093-.2-4.172-.515c-.6-.092-.82-.258-.984-.5a4.25,4.25,0,0,1-.3-1.768,52.323,52.323,0,0,1,.4-10.882A4.923,4.923,0,0,1,2.633,6.51a1.973,1.973,0,0,1,1.356-.745c6.56-1.825,12.978-3.19,19.02-3.194a41.213,41.213,0,0,1,8.537,1.057ZM8.889,10.349a2.949,2.949,0,0,0-.115,3.564A2.413,2.413,0,0,0,10.4,14.945a2.88,2.88,0,0,0,2.466-4.627,2.356,2.356,0,0,0-1.829-1.03,2.723,2.723,0,0,0-2.148,1.061Zm9.776-.891a2.706,2.706,0,0,0-2.073,1.335,2.82,2.82,0,0,0-.394,2.7c.792,1.83,3.527,1.808,4.617-.052a2.609,2.609,0,0,0,0-2.539,2.466,2.466,0,0,0-1.757-1.414,2.041,2.041,0,0,0-.393-.027Zm7.936.172a3,3,0,0,0-.839.092A2.65,2.65,0,0,0,23.9,12.578,2.7,2.7,0,0,0,27.27,15.01a2.562,2.562,0,0,0,1.915-1.89,2.678,2.678,0,0,0-.341-2.34A2.854,2.854,0,0,0,26.6,9.631ZM10.963,10.979a.587.587,0,0,1,.525.3,1.375,1.375,0,0,1-.106,1.666c-.369.324-.6.352-.76.331a.732.732,0,0,1-.472-.344,1.282,1.282,0,0,1,.006-1.5,1.269,1.269,0,0,1,.808-.453Zm7.819.185a1.367,1.367,0,0,1,.551.528.863.863,0,0,1,.04.886,1.013,1.013,0,0,1-1.641.238A1.6,1.6,0,0,1,18,11.72c.276-.423.624-.581.787-.557Zm8.71.621a1.516,1.516,0,0,1,.079.9.785.785,0,0,1-.643.674,1.069,1.069,0,0,1-.984-.172,1.143,1.143,0,0,1-.381-.767c-.074-.764.2-.941.63-1.057A1.292,1.292,0,0,1,27.493,11.785Z" transform="translate(0 -0.112)" fill="#fff"/>
    <path id="Path_391" data-name="Path 391" d="M57.61,4.19a.97.97,0,0,1,.239-.582.729.729,0,0,1,.584-.257h5.683a.975.975,0,0,1,.593.238.733.733,0,0,1,.306.6v9.048h9.508V4.19a.834.834,0,0,1,.861-.841H80.99a1.182,1.182,0,0,1,.669.191.682.682,0,0,1,.287.611v26.7a.775.775,0,0,1-.25.63.968.968,0,0,1-.649.21H75.383a.908.908,0,0,1-.622-.21.793.793,0,0,1-.239-.63V20.014H65.014V30.856a.772.772,0,0,1-.258.62,1.046,1.046,0,0,1-.7.219H58.433q-.8,0-.823-.744Zm52.344,27.181a1.188,1.188,0,0,1-.526.267,2.606,2.606,0,0,1-.525.058h-2.889a1.312,1.312,0,0,1-.594-.125,1.276,1.276,0,0,1-.421-.334,1.979,1.979,0,0,1-.286-.478,4.051,4.051,0,0,1-.191-.553l-.593-2.444a9.249,9.249,0,0,1-.833,1.346,7.063,7.063,0,0,1-1.387,1.412A7.719,7.719,0,0,1,99.7,31.629a7.434,7.434,0,0,1-2.679.449,9.03,9.03,0,0,1-6.992-3.131,10.5,10.5,0,0,1-1.941-3.389,12.23,12.23,0,0,1-.689-4.131V8.924a1.657,1.657,0,0,1,.316-1.1,1.244,1.244,0,0,1,1-.372h4.419a1.71,1.71,0,0,1,1.129.277,1.443,1.443,0,0,1,.306,1.078V21.235a3.4,3.4,0,0,0,.373,1.557,4.538,4.538,0,0,0,.986,1.3,4.717,4.717,0,0,0,1.387.888A4.055,4.055,0,0,0,98.9,25.3a3.534,3.534,0,0,0,1.425-.324,5.3,5.3,0,0,0,1.358-.869,4.641,4.641,0,0,0,1.024-1.279,3.192,3.192,0,0,0,.4-1.555V8.866a1.8,1.8,0,0,1,.125-.649,1.037,1.037,0,0,1,.373-.5,1.765,1.765,0,0,1,.469-.209,2.021,2.021,0,0,1,.507-.058H108.9a1.535,1.535,0,0,1,1.185.4,1.532,1.532,0,0,1,.364,1.069v21.36a1.4,1.4,0,0,1-.162.668,1.2,1.2,0,0,1-.45.477l.114-.056Zm22.212-2.635q-.517.516-1.138,1.107a11.252,11.252,0,0,1-1.368,1.107,7.748,7.748,0,0,1-1.607.85,5.086,5.086,0,0,1-1.857.334,11.664,11.664,0,0,1-4.793-.973,11.469,11.469,0,0,1-3.769-2.663,12.255,12.255,0,0,1-2.468-3.98,13.469,13.469,0,0,1-.89-4.925,13.445,13.445,0,0,1,.89-4.934,12.288,12.288,0,0,1,2.468-3.97A11.351,11.351,0,0,1,121.4,8.037a11.768,11.768,0,0,1,4.793-.964,5.778,5.778,0,0,1,1.923.306,7.093,7.093,0,0,1,1.588.782,8.659,8.659,0,0,1,1.32,1.078q.6.6,1.138,1.174V1.689a1.5,1.5,0,0,1,.373-1.03,1.418,1.418,0,0,1,1.12-.42h4.3a1.488,1.488,0,0,1,.526.1,1.785,1.785,0,0,1,.508.3,1.543,1.543,0,0,1,.372.458,1.231,1.231,0,0,1,.144.591V30.226q0,1.47-1.55,1.47h-3.75a1.48,1.48,0,0,1-.593-.1.941.941,0,0,1-.355-.277,1.925,1.925,0,0,1-.258-.458q-.135-.323-.286-.64l-.555-1.489Zm-11-9.143a6.953,6.953,0,0,0,.392,2.358,5.582,5.582,0,0,0,1.12,1.9,5.314,5.314,0,0,0,1.75,1.269,5.387,5.387,0,0,0,2.268.468A6.075,6.075,0,0,0,129,25.149a5.877,5.877,0,0,0,1.884-1.213,6.037,6.037,0,0,0,1.837-4.075v-.267a6.017,6.017,0,0,0-.46-2.328,6.167,6.167,0,0,0-1.272-1.947,6.029,6.029,0,0,0-1.913-1.326,5.82,5.82,0,0,0-2.382-.487,5.211,5.211,0,0,0-2.268.487,5.281,5.281,0,0,0-1.75,1.326,6.007,6.007,0,0,0-1.12,1.947,6.921,6.921,0,0,0-.391,2.328Zm40.56,9.143q-.517.516-1.139,1.107a11.247,11.247,0,0,1-1.368,1.107,7.748,7.748,0,0,1-1.607.85,5.086,5.086,0,0,1-1.857.334,11.657,11.657,0,0,1-4.792-.973,11.469,11.469,0,0,1-3.77-2.663,12.268,12.268,0,0,1-2.468-3.98,13.487,13.487,0,0,1-.89-4.925,13.462,13.462,0,0,1,.89-4.934,12.288,12.288,0,0,1,2.468-3.97,11.352,11.352,0,0,1,3.77-2.653,11.761,11.761,0,0,1,4.792-.964,5.778,5.778,0,0,1,1.923.306,7.091,7.091,0,0,1,1.588.782,8.659,8.659,0,0,1,1.32,1.078q.6.6,1.138,1.174V1.689A1.5,1.5,0,0,1,162.1.659a1.419,1.419,0,0,1,1.12-.42h4.3a1.488,1.488,0,0,1,.526.1,1.763,1.763,0,0,1,.508.3,1.545,1.545,0,0,1,.373.458,1.241,1.241,0,0,1,.143.591V30.226q0,1.47-1.55,1.47h-3.75a1.48,1.48,0,0,1-.593-.1.941.941,0,0,1-.354-.277,1.926,1.926,0,0,1-.258-.458q-.136-.323-.287-.64l-.555-1.489Zm-11-9.143a6.955,6.955,0,0,0,.392,2.358,5.61,5.61,0,0,0,1.12,1.9,5.314,5.314,0,0,0,1.751,1.269,5.383,5.383,0,0,0,2.267.468,6.075,6.075,0,0,0,2.305-.439,5.877,5.877,0,0,0,1.885-1.213,6.027,6.027,0,0,0,1.29-1.822,5.967,5.967,0,0,0,.546-2.253v-.267a6.017,6.017,0,0,0-.46-2.328,6.167,6.167,0,0,0-1.272-1.947,6.029,6.029,0,0,0-1.913-1.326,5.82,5.82,0,0,0-2.382-.487,5.2,5.2,0,0,0-2.267.487,5.285,5.285,0,0,0-1.751,1.326,6.007,6.007,0,0,0-1.12,1.947,6.921,6.921,0,0,0-.391,2.328ZM174.162,1.708a1.7,1.7,0,0,1,.306-1.03,1.216,1.216,0,0,1,1.052-.42h4.687a.9.9,0,0,1,.4.1,1.415,1.415,0,0,1,.392.3,1.7,1.7,0,0,1,.306.458,1.382,1.382,0,0,1,.125.591V30.226a1.4,1.4,0,0,1-.412,1.1,1.519,1.519,0,0,1-1.061.372H175.52a1.3,1.3,0,0,1-1.052-.372,1.7,1.7,0,0,1-.306-1.1ZM206.38,28.794a12.749,12.749,0,0,1-3.788,2.415,11.57,11.57,0,0,1-4.458.869,13.037,13.037,0,0,1-9.049-3.6,12.686,12.686,0,0,1-2.793-3.98,11.962,11.962,0,0,1-1.033-4.982,12.875,12.875,0,0,1,1.578-6.2,12.5,12.5,0,0,1,1.837-2.529,11.613,11.613,0,0,1,2.42-1.976A11.941,11.941,0,0,1,194,7.53a11.75,11.75,0,0,1,3.309-.458,11.317,11.317,0,0,1,3.08.42,12.021,12.021,0,0,1,2.8,1.183,12.181,12.181,0,0,1,2.4,1.833,12.376,12.376,0,0,1,1.875,2.338,11.266,11.266,0,0,1,1.215,2.71,10.337,10.337,0,0,1,.43,2.968q0,.993-.029,1.623a1.832,1.832,0,0,1-.3,1,1.434,1.434,0,0,1-.89.515,8.66,8.66,0,0,1-1.827.144H192.3a4.751,4.751,0,0,0,.774,2.043,4.859,4.859,0,0,0,1.349,1.307,5.421,5.421,0,0,0,1.627.7,6.875,6.875,0,0,0,1.626.209,7.369,7.369,0,0,0,1.415-.143,10.159,10.159,0,0,0,1.407-.382,7.965,7.965,0,0,0,1.243-.554,4.138,4.138,0,0,0,.909-.658,3.973,3.973,0,0,1,.526-.373.936.936,0,0,1,.469-.124.923.923,0,0,1,.508.172,3.994,3.994,0,0,1,.583.5l2.028,2.291a1.294,1.294,0,0,1,.268.449,1.485,1.485,0,0,1,.057.41,1.058,1.058,0,0,1-.211.659,2.4,2.4,0,0,1-.5.487Zm-9.2-15.9a3.672,3.672,0,0,0-1.444.3,5.453,5.453,0,0,0-1.311.792,6.813,6.813,0,0,0-1.1,1.126,6.9,6.9,0,0,0-.794,1.279H202.3a11.239,11.239,0,0,0-.87-1.375,5.889,5.889,0,0,0-1.071-1.107,4.631,4.631,0,0,0-1.378-.744,5.531,5.531,0,0,0-1.807-.267Z" transform="translate(-10.107)" fill="#fff"/>
  </g>
</svg>
